<svg xmlns="http://www.w3.org/2000/svg" viewBox="0 0 64 64">
  <rect width="64" height="64" rx="14" fill="#FFFBEB"/>
  <path d="M12 36 L16 24 Q17 21 20 21 L44 21 Q47 21 48 24 L52 36 L52 44 Q52 46 50 46 L46 46 Q44 46 44 44 L44 42 L20 42 L20 44 Q20 46 18 46 L14 46 Q12 46 12 44 Z" fill="#9A3412"/>
  <rect x="20" y="25" width="10" height="12" rx="2" fill="#FFFBEB"/>
  <rect x="34" y="25" width="10" height="12" rx="2" fill="#FFFBEB"/>
  <circle cx="20" cy="44" r="5" fill="#1F1108"/>
  <circle cx="20" cy="44" r="2" fill="#F2E6E2"/>
  <circle cx="44" cy="44" r="5" fill="#1F1108"/>
  <circle cx="44" cy="44" r="2" fill="#F2E6E2"/>
</svg>
